<svg width="18" height="14" viewBox="0 0 18 14" fill="none" xmlns="http://www.w3.org/2000/svg">
<path d="M14.962 0.0957031H3.03809C2.24273 0.0966558 1.48022 0.413032 0.917818 0.975435C0.355415 1.53784 0.0390387 2.30035 0.0380859 3.0957V10.9051C0.0390387 11.7004 0.355415 12.4629 0.917818 13.0253C1.48022 13.5877 2.24273 13.9041 3.03809 13.9051H14.962C15.7574 13.9041 16.5199 13.5877 17.0823 13.0253C17.6447 12.4629 17.9611 11.7004 17.962 10.9051V3.0957C17.9611 2.30035 17.6447 1.53784 17.0823 0.975435C16.5199 0.413032 15.7574 0.0966558 14.962 0.0957031ZM3.03809 1.2957H14.962C15.4392 1.29621 15.8968 1.48602 16.2342 1.82347C16.5717 2.16093 16.7615 2.61847 16.762 3.0957V3.88266H1.23809V3.0957C1.23859 2.61847 1.4284 2.16093 1.76586 1.82347C2.10331 1.48602 2.56085 1.29621 3.03809 1.2957ZM14.962 12.7051H3.03809C2.56085 12.7046 2.10331 12.5147 1.76586 12.1773C1.4284 11.8398 1.23859 11.3823 1.23809 10.9051V5.08266H16.762V10.9051C16.7615 11.3823 16.5717 11.8398 16.2342 12.1773C15.8968 12.5147 15.4392 12.7046 14.962 12.7051ZM15.122 9.89898C15.122 10.0581 15.0588 10.2107 14.9462 10.3232C14.8337 10.4358 14.6811 10.499 14.522 10.499H13.0834C12.9243 10.499 12.7717 10.4358 12.6591 10.3232C12.5466 10.2107 12.4834 10.0581 12.4834 9.89898C12.4834 9.73985 12.5466 9.58724 12.6591 9.47472C12.7717 9.3622 12.9243 9.29898 13.0834 9.29898H14.522C14.6811 9.29898 14.8337 9.3622 14.9462 9.47472C15.0588 9.58724 15.122 9.73985 15.122 9.89898Z" fill="black"/>
</svg>
