<svg width="32" height="20" viewBox="0 0 32 20" fill="none" xmlns="http://www.w3.org/2000/svg">
<path d="M12.3464 9.56792C12.3467 8.12077 12.6744 6.69245 13.305 5.3899C13.9355 4.08735 14.8526 2.94433 15.9875 2.04642C14.5761 0.936721 12.8809 0.24653 11.0958 0.0547476C9.31067 -0.137035 7.50759 0.17733 5.89268 0.961906C4.27778 1.74648 2.9162 2.96961 1.96362 4.49147C1.01103 6.01333 0.505859 7.77251 0.505859 9.56792C0.505859 11.3633 1.01103 13.1225 1.96362 14.6444C2.9162 16.1662 4.27778 17.3894 5.89268 18.1739C7.50759 18.9585 9.31067 19.2729 11.0958 19.0811C12.8809 18.8893 14.5761 18.1991 15.9875 17.0894C14.8526 16.1915 13.9355 15.0485 13.305 13.7459C12.6744 12.4434 12.3467 11.0151 12.3464 9.56792Z" fill="#EB001B"/>
<path d="M31.4828 9.56717C31.4841 11.3613 30.9805 13.1195 30.0294 14.6408C29.0784 16.1621 27.7184 17.385 26.105 18.1697C24.4916 18.9544 22.6899 19.2691 20.906 19.078C19.1221 18.8868 17.4281 18.1974 16.0176 17.0887C17.1527 16.191 18.07 15.048 18.7006 13.7454C19.3312 12.4428 19.6587 11.0144 19.6587 9.56717C19.6587 8.11996 19.3312 6.69152 18.7006 5.38892C18.07 4.08632 17.1527 2.94335 16.0176 2.04568C17.4281 0.936934 19.1221 0.247553 20.906 0.056378C22.6899 -0.134797 24.4916 0.179954 26.105 0.964632C27.7184 1.74931 29.0784 2.97223 30.0294 4.49353C30.9805 6.01483 31.4841 7.77307 31.4828 9.56717Z" fill="#F79E1B"/>
</svg>
