<svg width="34" height="12" viewBox="0 0 34 12" fill="none" xmlns="http://www.w3.org/2000/svg">
<path d="M12.0957 11.0299L13.7859 1.05469H16.4894L14.798 11.0299H12.0957Z" fill="#0E4595"/>
<path d="M24.5654 1.27052C24.0298 1.06843 23.1905 0.851562 22.1424 0.851562C19.471 0.851562 17.5893 2.20448 17.5733 4.14349C17.5582 5.57681 18.9166 6.3764 19.9421 6.85355C20.9945 7.34257 21.3482 7.65436 21.3432 8.0909C21.3364 8.75959 20.5028 9.06497 19.7257 9.06497C18.6437 9.06497 18.0688 8.91378 17.181 8.54145L16.8325 8.38287L16.4531 10.6159C17.0846 10.8944 18.2522 11.1356 19.4647 11.1481C22.3065 11.1481 24.1514 9.81065 24.1724 7.74002C24.1825 6.60524 23.4623 5.74175 21.9025 5.0298C20.9575 4.56835 20.3788 4.26043 20.385 3.79317C20.385 3.37854 20.8748 2.93518 21.9333 2.93518C22.8173 2.92137 23.4577 3.11526 23.9567 3.31735L24.1989 3.43245L24.5654 1.27052Z" fill="#0E4595"/>
<path d="M31.5216 1.05469H29.4327C28.7855 1.05469 28.3012 1.23232 28.017 1.8819L24.002 11.0234H26.8409C26.8409 11.0234 27.305 9.79431 27.4099 9.52439C27.7202 9.52439 30.4781 9.52867 30.8723 9.52867C30.9532 9.87792 31.2012 11.0234 31.2012 11.0234H33.7098L31.5216 1.05469ZM28.2072 7.49586C28.4308 6.92113 29.2844 4.70738 29.2844 4.70738C29.2684 4.73392 29.5063 4.12985 29.6428 3.75532L29.8255 4.61535C29.8255 4.61535 30.3432 6.99644 30.4514 7.49571H28.2072V7.49586Z" fill="#0E4595"/>
<path d="M0.324576 1.05469L0.290039 1.26219C1.35875 1.52237 2.31326 1.89894 3.14895 2.36739L5.54779 11.0139L8.40819 11.0107L12.6644 1.05469H9.80043L7.15369 7.85704L6.87176 6.47457C6.85855 6.43186 6.84419 6.38907 6.8295 6.34619L5.90939 1.89685C5.74579 1.2652 5.27116 1.0767 4.68399 1.05469H0.324576Z" fill="#0E4595"/>
</svg>
